<svg width="36" height="36" viewBox="0 0 36 36" fill="none" xmlns="http://www.w3.org/2000/svg">
<path fill-rule="evenodd" clip-rule="evenodd" d="M30.4429 31.5H5.55714C3.01239 31.5 1.42605 28.8488 2.69842 26.7374L15.1413 6.08357C16.4137 3.97214 19.5863 3.97214 20.8587 6.08357L33.3016 26.7374C34.574 28.8488 32.9876 31.5 30.4429 31.5ZM18.0009 13.5C17.2584 13.5 16.6509 14.1075 16.6509 14.85V20.25C16.6509 20.9925 17.2584 21.6 18.0009 21.6C18.7434 21.6 19.3509 20.9925 19.3509 20.25V14.85C19.3509 14.1075 18.7434 13.5 18.0009 13.5ZM19.3518 25.65C19.3518 26.3956 18.7473 27 18.0018 27C17.2562 27 16.6518 26.3956 16.6518 25.65C16.6518 24.9044 17.2562 24.3 18.0018 24.3C18.7473 24.3 19.3518 24.9044 19.3518 25.65Z" fill="#DD6907"/>
</svg>
