<svg width="40" height="40" viewBox="0 0 40 40" fill="none" xmlns="http://www.w3.org/2000/svg">
<g clip-path="url(#clip0_3732_27011)">
<rect width="40" height="40" rx="4" fill="#5BC1C1"/>
<path d="M28.5 28.0005C28.7761 28.0005 29 27.7766 29 27.5005V16.9163C29 16.0954 28.4984 15.3579 27.7349 15.0562L20.1837 12.0731C20.0657 12.0264 19.9343 12.0264 19.8163 12.0731L12.2651 15.0562C11.5016 15.3579 11 16.0954 11 16.9163V27.5005C11 27.7766 11.2239 28.0005 11.5 28.0005H15C15.2761 28.0005 15.5 27.7766 15.5 27.5005V20.5005C15.5 20.2243 15.7239 20.0005 16 20.0005H24C24.2761 20.0005 24.5 20.2243 24.5 20.5005V27.5005C24.5 27.7766 24.7239 28.0005 25 28.0005H28.5ZM19.1 26.7227C19.1 26.4466 18.8761 26.2227 18.6 26.2227H17.8C17.5239 26.2227 17.3 26.4466 17.3 26.7227V27.5005C17.3 27.7766 17.5239 28.0005 17.8 28.0005H18.6C18.8761 28.0005 19.1 27.7766 19.1 27.5005V26.7227ZM20.9 24.056C20.9 23.7799 20.6761 23.556 20.4 23.556H19.6C19.3239 23.556 19.1 23.7799 19.1 24.056V24.8338C19.1 25.11 19.3239 25.3338 19.6 25.3338H20.4C20.6761 25.3338 20.9 25.11 20.9 24.8338V24.056ZM22.7 26.7227C22.7 26.4466 22.4761 26.2227 22.2 26.2227H21.4C21.1239 26.2227 20.9 26.4466 20.9 26.7227V27.5005C20.9 27.7766 21.1239 28.0005 21.4 28.0005H22.2C22.4761 28.0005 22.7 27.7766 22.7 27.5005V26.7227Z" fill="white"/>
</g>
<defs>
<clipPath id="clip0_3732_27011">
<rect width="40" height="40" rx="4" fill="white"/>
</clipPath>
</defs>
</svg>
