<svg width="40" height="40" viewBox="0 0 40 40" fill="none" xmlns="http://www.w3.org/2000/svg">
<g clip-path="url(#clip0_7470_128816)">
<rect width="40" height="40" rx="4" fill="#775DD0"/>
<path fill-rule="evenodd" clip-rule="evenodd" d="M30.6656 28.7265C30.6656 29.0553 30.3927 29.3219 30.0561 29.3219H27.618C27.2813 29.3219 27.0085 29.0553 27.0085 28.7265V20.742C27.0085 20.4132 26.7356 20.1467 26.3989 20.1467H16.6466C16.3099 20.1467 16.037 20.4132 16.037 20.742V22.0734H12.3799V16.4744C12.3799 15.497 12.9914 14.6188 13.9222 14.2596L21.2988 10.7077C21.4427 10.6521 21.6028 10.6521 21.7467 10.7077L29.1233 14.2596C30.0541 14.6188 30.6656 15.497 30.6656 16.4744V28.7265ZM25.9997 26.4236V23.9501C25.9997 23.61 25.69 23.3318 25.3114 23.3318H21.8702V22.3486C21.8702 21.7982 21.1269 21.52 20.6933 21.9096L18.6631 23.7336C18.6631 23.7336 18.6631 23.7336 18.6631 23.7336L17.5343 24.7478C17.4001 24.8684 17.333 25.0261 17.333 25.1838C17.333 25.2059 17.3343 25.228 17.337 25.25C17.3531 25.3849 17.4189 25.516 17.5343 25.6197L20.6933 28.458C21.1269 28.8476 21.8702 28.5755 21.8702 28.0251V27.0419H25.3114C25.69 27.0419 25.9997 26.7637 25.9997 26.4236ZM16.037 23.1105L17.8295 23.1105L16.8795 23.964C16.1508 24.6187 16.1508 25.7488 16.8795 26.4034L18.6663 28.0089V28.6413C18.6663 29.0231 18.3679 29.3327 17.9997 29.3327H9.99967C9.63148 29.3327 9.33301 29.0231 9.33301 28.6413V23.8018C9.33301 23.42 9.63148 23.1105 9.99967 23.1105L12.3799 23.1105H16.037Z" fill="white"/>
</g>
<defs>
<clipPath id="clip0_7470_128816">
<rect width="40" height="40" rx="4" fill="white"/>
</clipPath>
</defs>
</svg>
