<?xml version="1.0" encoding="utf-8"?>
<!-- Generator: Adobe Illustrator 26.5.0, SVG Export Plug-In . SVG Version: 6.00 Build 0)  -->
<svg version="1.1" id="Layer_1" xmlns:svgjs="http://svgjs.com/svgjs"
	 xmlns="http://www.w3.org/2000/svg" xmlns:xlink="http://www.w3.org/1999/xlink" x="0px" y="0px" viewBox="0 0 40 40.1"
	 style="enable-background:new 0 0 40 40.1;" xml:space="preserve">
<style type="text/css">
	.st0{fill:#5BC1C1;}
</style>
<path class="st0" d="M18.9,23.7c-0.1,1.4-0.6,3.2-1.8,5c-0.4,0.6-1,1.1-1.5,1.6c-0.6-0.1-1.1-0.3-1.7-0.6c0.8-0.6,1.5-1.2,2-1.9
	c1.2-1.6,1.5-3.3,1.6-4.4c-1.2,3.2-6.1,4.8-6.1,4.8s0,0,0,0c-0.1-0.1-0.1-0.1-0.2-0.2c0,0-0.1-0.1-0.1-0.1c-0.2-0.2-0.4-0.3-0.5-0.5
	c-1.8-1.8-2.8-3.8-3.1-6.2c0-0.1,0-0.1,0-0.2c0-0.1,0-0.2,0-0.2c0-0.1,0-0.3,0-0.4c0,0,0-0.1,0-0.1c0-0.2,0-0.3,0-0.5
	c0-3,1.1-5.5,3.2-7.6c0.1-0.1,0.3-0.3,0.4-0.4c1.9-1.7,4.1-2.6,6.6-2.8c0.2,0,0.4,0,0.6,0c0.2,0,0.4,0,0.6,0c2.5,0.1,4.8,1,6.6,2.8
	c0.1,0.1,0.3,0.3,0.4,0.4c2.1,2.1,3.2,4.6,3.2,7.6c0,0.2,0,0.3,0,0.5c0,0,0,0.1,0,0.1c0,0.1,0,0.3,0,0.4c0,0.1,0,0.2,0,0.2
	c0,0.1,0,0.1,0,0.2c-0.3,2.4-1.3,4.4-3.1,6.2c-0.3,0.3-0.6,0.5-0.9,0.8l0,0c0,0-2.7-1.2-4.4-4.2c0.5,3.6,2.9,8.3,10.9,12.8H40
	c-4.7-3-7.1-6.2-7.1-6.2c2.3-3.1,3.4-6.6,3.4-10.5c0-5-1.8-9.2-5.3-12.7C27.4,3.8,23.1,2,18.1,2S8.9,3.8,5.3,7.3
	C1.8,10.8,0,15.1,0,20c0,5,1.8,9.2,5.3,12.7c3.5,3.5,7.8,5.3,12.8,5.3c3.2,0,6.1-0.8,8.8-2.2C21,31.5,19.2,27.1,18.9,23.7z"/>
</svg>
